<svg width="24" height="24" viewBox="0 0 24 24" fill="none" xmlns="http://www.w3.org/2000/svg">
<path d="M4.22033 9.30533L10.2195 3.63195V3.63371L4.21873 9.30744L4.218 9.30813C4.07047 9.44799 3.95292 9.61637 3.87246 9.80307C3.79201 9.98975 3.75035 10.1908 3.75 10.3941C3.75035 9.98271 3.92045 9.58822 4.21965 9.30597L4.22033 9.30533ZM20.25 18.7519C20.25 19.1497 20.092 19.5313 19.8107 19.8126C19.5294 20.0939 19.1478 20.2519 18.75 20.2519H15.75C15.5529 20.2519 15.3578 20.2131 15.1757 20.1376C14.9937 20.0622 14.8283 19.9516 14.689 19.8122C14.5497 19.6728 14.4392 19.5073 14.3639 19.3252C14.2886 19.1431 14.2499 18.948 14.25 18.7509C14.2501 19.1486 14.4082 19.5299 14.6893 19.8111C14.9706 20.0924 15.3522 20.2504 15.75 20.2504H18.75C19.1478 20.2504 19.5294 20.0924 19.8107 19.8111C20.092 19.5298 20.25 19.1482 20.25 18.7504V18.7519Z" fill="#1F2229" stroke="white" stroke-width="1.5"/>
</svg>
