<svg width="24" height="24" viewBox="0 0 24 24" fill="none" xmlns="http://www.w3.org/2000/svg">
<path d="M17.1224 7.67856H15.5715C15.581 7.67856 15.5901 7.68232 15.5968 7.68902C15.6035 7.69572 15.6072 7.70481 15.6072 7.71428C15.6072 7.72375 15.6035 7.73284 15.5968 7.73954C15.5901 7.74624 15.581 7.75 15.5715 7.75H17.1226L17.1224 7.67856ZM17.1224 7.67856L17.1229 7L17.1224 7.67856ZM15.8168 14.781C15.8169 14.7807 15.817 14.7805 15.8171 14.7802C15.8172 14.78 15.8173 14.7797 15.8174 14.7795L15.8168 14.781ZM15.8168 14.781L15.1193 16.3298L15.8168 14.781ZM15.8168 14.781C15.8163 14.7821 15.8158 14.7832 15.8153 14.7843L15.8808 14.8132M15.8168 14.781L15.8808 14.8132M15.8808 14.8132L16.5015 15.087L15.8829 14.8085M15.8808 14.8132L20.5714 14.1785H20.1864H16.8641M15.8808 14.8132L15.8824 14.8096L15.8827 14.8089C15.8828 14.8087 15.8828 14.8086 15.8829 14.8085M15.8808 14.8132L15.8829 14.8085M15.8829 14.8085C15.969 14.6172 16.1081 14.4596 16.2782 14.3498C16.4477 14.2403 16.6481 14.1785 16.8572 14.1785H16.8579M16.8579 14.1785V14.8571L16.8641 14.1785M16.8579 14.1785H16.8641M16.8579 14.1785V14.1071L16.8641 14.1785M7.14302 14.1785V14.8571L7.13931 14.1785L8.81689 16.3618M7.14302 14.1785C7.34862 14.1791 7.54973 14.2388 7.72243 14.3504C7.72263 14.3505 7.72283 14.3507 7.72302 14.3508M7.14302 14.1785C7.14241 14.1785 7.14181 14.1785 7.14121 14.1785L7.14302 14.1785ZM7.72302 14.3508C7.89548 14.4624 8.03228 14.6212 8.11721 14.8082M7.72302 14.3508L7.76266 14.2896C7.94711 14.4091 8.09289 14.5796 8.18238 14.7802M7.72302 14.3508L7.76266 14.2896C7.76244 14.2895 7.76223 14.2893 7.76201 14.2892C7.5772 14.1696 7.36166 14.1064 7.14159 14.1071L8.18238 14.7802M8.11721 14.8082L7.49801 15.0871L8.11933 14.8129M8.11721 14.8082C8.11746 14.8087 8.11771 14.8093 8.11796 14.8099C8.118 14.8099 8.11804 14.81 8.11807 14.8101L8.11933 14.8129M8.11721 14.8082L8.18186 14.7791L8.18237 14.7802L8.18238 14.7802M8.11933 14.8129L8.81683 16.3616M8.11933 14.8129L8.18419 14.7843C8.1837 14.7832 8.18321 14.7821 8.18272 14.781C8.18271 14.781 8.1827 14.7809 8.18269 14.7809C8.18259 14.7807 8.18248 14.7804 8.18238 14.7802M8.81683 16.3616C8.81685 16.3617 8.81687 16.3617 8.81689 16.3618M8.81683 16.3616C8.81635 16.3606 8.81587 16.3595 8.81539 16.3584L8.88024 16.3298L8.88151 16.3326C8.88156 16.3327 8.88161 16.3328 8.88167 16.3329M8.81683 16.3616L8.81689 16.3618M8.81689 16.3618C8.81699 16.362 8.8171 16.3622 8.8172 16.3625M8.81689 16.3618L8.8172 16.3625M8.81689 16.3618L8.88167 16.3329M8.8172 16.3625L8.81772 16.3636L8.88237 16.3345M8.8172 16.3625C8.90676 16.5633 9.05271 16.7338 9.23738 16.8534L8.88167 16.3329M8.88237 16.3345C8.88214 16.334 8.8819 16.3335 8.88167 16.3329M8.88237 16.3345C8.96736 16.5217 9.10431 16.6805 9.27697 16.7921C9.2771 16.7922 9.27724 16.7923 9.27738 16.7924C9.45023 16.9041 9.65152 16.9637 9.85727 16.9642L8.88237 16.3345ZM14.1392 16.9642H9.86224H14.1392Z" fill="white" stroke="white" stroke-width="1.5"/>
<path d="M12.0001 2C11.8107 2 11.629 2.07525 11.4951 2.20921C11.3611 2.34316 11.2859 2.52484 11.2859 2.71428V11.7042L10.3623 10.7806C10.0509 10.4735 9.63874 10.4942 9.35232 10.7806C9.21841 10.9146 9.14319 11.0962 9.14319 11.2856C9.14319 11.475 9.21841 11.6567 9.35232 11.7906L11.4952 13.9334C11.6291 14.0673 11.8107 14.1426 12.0001 14.1426C12.1895 14.1426 12.3712 14.0673 12.5051 13.9334L14.648 11.7906C14.7781 11.6559 14.8501 11.4755 14.8485 11.2882C14.8468 11.1009 14.7717 10.9218 14.6393 10.7893C14.5068 10.6569 14.3277 10.5818 14.1404 10.5801C13.9531 10.5785 13.7727 10.6505 13.638 10.7806L12.7144 11.7042V2.71428C12.7144 2.52484 12.6392 2.34316 12.5052 2.20921C12.3713 2.07525 12.1896 2 12.0001 2Z" fill="white"/>
</svg>
