<svg width="24" height="24" viewBox="0 0 24 24" fill="none" xmlns="http://www.w3.org/2000/svg">
<path d="M19.4745 12.3115V10.5129C19.4745 10.0916 19.1331 9.75016 18.7118 9.75016H17.1863C16.7651 9.75016 16.4236 10.0916 16.4236 10.5129V12.3115M7.76663 9.75427H3.95298M17.9491 6.81365V6.05092C17.9491 4.36594 16.5831 3 14.8982 3C13.2132 3 11.8472 4.36594 11.8472 6.05092V10.5129C11.8472 12.1979 10.4813 14.0251 8.79632 14.0251H3.95298M21 14.0251V18.0036C21 18.2802 20.9398 18.5536 20.8236 18.8046C20.7074 19.0556 20.538 19.2784 20.3271 19.4574L18.9362 20.6379C18.3669 21.1213 17.5313 21.1213 16.9619 20.6379L15.571 19.4574C15.3602 19.2784 15.1907 19.0556 15.0745 18.8046C14.9583 18.5536 14.8982 18.2802 14.8982 18.0036V14.0251C14.8982 13.3932 15.4104 12.881 16.0423 12.881H19.8559C20.4878 12.881 21 13.3932 21 14.0251ZM8.57737 4.54922C8.97857 3.8628 8.48344 3 7.68837 3H4.03123C3.23616 3 2.74108 3.8628 3.14223 4.54922L3.95298 5.93651H7.76663L8.57737 4.54922ZM7.76663 18.0639H3.95298L3.14223 19.4512C2.74108 20.1376 3.23616 21.0004 4.03123 21.0004H7.68837C8.48344 21.0004 8.97853 20.1376 8.57737 19.4512L7.76663 18.0639Z" stroke="white" stroke-width="1.5" stroke-miterlimit="10" stroke-linecap="round" stroke-linejoin="round"/>
</svg>
