<svg width="36" height="36" viewBox="0 0 36 36" fill="none" xmlns="http://www.w3.org/2000/svg">
<path d="M14.805 8.50466L9.67497 11.6247L7.33498 7.78469C6.47998 6.37469 6.92997 4.51469 8.33997 3.65969C9.74997 2.80469 11.61 3.25467 12.465 4.66467L14.805 8.50466Z" stroke="#1F2229" stroke-width="2" stroke-linecap="round" stroke-linejoin="round"/>
<path d="M17.7299 13.7404L12.9899 16.6204C10.2299 18.3004 9.38992 21.6904 10.7249 24.3904L13.7999 30.6604C14.7899 32.6854 17.1899 33.3904 19.1099 32.2054L28.7549 26.3404C30.6899 25.1704 31.1549 22.7254 29.8199 20.9104L25.6649 15.3004C23.8649 12.8704 20.4899 12.0604 17.7299 13.7404Z" stroke="#1F2229" stroke-width="2" stroke-linecap="round" stroke-linejoin="round"/>
<path d="M16.1349 7.64723L8.448 12.3281L11.5686 17.4527L19.2555 12.7718L16.1349 7.64723Z" stroke="#1F2229" stroke-width="2" stroke-linecap="round" stroke-linejoin="round"/>
<path d="M21.4651 25.2148L23.9401 29.2799" stroke="#1F2229" stroke-width="2" stroke-linecap="round" stroke-linejoin="round"/>
<path d="M17.625 27.5547L20.1 31.6197" stroke="#1F2229" stroke-width="2" stroke-linecap="round" stroke-linejoin="round"/>
<path d="M25.3049 22.875L27.7799 26.94" stroke="#1F2229" stroke-width="2" stroke-linecap="round" stroke-linejoin="round"/>
</svg>
