<svg width="36" height="36" viewBox="0 0 36 36" fill="none" xmlns="http://www.w3.org/2000/svg">
<path d="M27 12L19.5 16.5L16.5 13.5H10.5M27 12L31.5 16.5M27 12L21 22.5H4.5V13.5H10.5M10.5 13.5V6M10.5 6H6M10.5 6H15" stroke="#1F2229" stroke-width="2" stroke-linejoin="round"/>
<path d="M4.5 31.5L6.75 29.25C7.53001 28.47 7.92002 28.08 8.36852 27.9307C8.77846 27.7943 9.22154 27.7943 9.63148 27.9307C10.08 28.08 10.47 28.47 11.25 29.25L11.4728 29.4728C12.0435 30.0435 12.3289 30.3289 12.6391 30.4768C13.1837 30.7365 13.8163 30.7365 14.3609 30.4768C14.6711 30.3289 14.9565 30.0435 15.5272 29.4728L16.0879 28.9121C16.2578 28.7422 16.3428 28.6572 16.4168 28.5962C17.2724 27.8907 18.5388 28.0161 19.2394 28.8757C19.3 28.95 19.3667 29.05 19.5 29.25V29.25C19.6333 29.45 19.7 29.55 19.7606 29.6243C20.4612 30.4839 21.7276 30.6093 22.5832 29.9038C22.6572 29.8428 22.7422 29.7578 22.9121 29.5879L23.4728 29.0272C24.0435 28.4565 24.3289 28.1711 24.6391 28.0232C25.1837 27.7635 25.8163 27.7635 26.3609 28.0232C26.6711 28.1711 26.9565 28.4565 27.5272 29.0272L30 31.5" stroke="#1F2229" stroke-width="2" stroke-linejoin="round"/>
</svg>
