<svg width="36" height="36" viewBox="0 0 36 36" fill="none" xmlns="http://www.w3.org/2000/svg">
<path d="M14.625 3.375C10.2876 3.375 6.75 6.9126 6.75 11.25C6.75 13.9614 8.13428 16.3696 10.2305 17.7891C6.21826 19.5117 3.375 23.4932 3.375 28.125H5.625C5.625 23.1416 9.6416 19.125 14.625 19.125C17.0376 19.125 19.1953 20.1138 20.8125 21.6562L15.5039 26.9648L15.4336 27.3164L14.6602 31.2891L14.3086 32.9414L15.9609 32.5898L19.9336 31.8164L20.2852 31.7461L31.6406 20.3906C32.9458 19.0854 32.9458 16.9146 31.6406 15.6094C30.9858 14.9546 30.1157 14.625 29.25 14.625C28.4019 14.625 27.5449 14.9458 26.8945 15.5742L22.4297 20.0391C21.4497 19.0986 20.2896 18.3296 19.0195 17.7891C21.1157 16.3696 22.5 13.9614 22.5 11.25C22.5 6.9126 18.9624 3.375 14.625 3.375ZM14.625 5.625C17.7451 5.625 20.25 8.12988 20.25 11.25C20.25 14.3701 17.7451 16.875 14.625 16.875C11.5049 16.875 9 14.3701 9 11.25C9 8.12988 11.5049 5.625 14.625 5.625ZM29.25 16.875C29.5356 16.875 29.8345 16.9673 30.0586 17.1914C30.5068 17.6396 30.5068 18.3252 30.0586 18.7734L19.1602 29.6719L17.1562 30.0938L17.5781 28.0898L28.4766 17.1914C28.7007 16.9673 28.9644 16.875 29.25 16.875Z" fill="black"/>
</svg>
