<svg width="25" height="24" viewBox="0 0 25 24" fill="none" xmlns="http://www.w3.org/2000/svg">
<path d="M19.9219 17.4688H18.313V13.9068C18.313 10.7014 15.7053 8.09375 12.5 8.09375C9.2947 8.09375 6.687 10.7014 6.687 13.9068V17.4688H5.07813C4.64665 17.4688 4.29688 17.8185 4.29688 18.25V21.2188C4.29688 21.6502 4.64665 22 5.07813 22H19.9219C20.3534 22 20.7031 21.6502 20.7031 21.2188V18.25C20.7031 17.8185 20.3534 17.4688 19.9219 17.4688ZM8.2495 13.9068C8.2495 11.563 10.1563 9.65625 12.5 9.65625C14.8438 9.65625 16.7505 11.563 16.7505 13.9068V17.4688H8.2495V13.9068ZM19.1406 20.4375H5.85938V19.0312H19.1406V20.4375ZM12.5 6.53125C12.9315 6.53125 13.2813 6.18148 13.2813 5.75V2.78125C13.2813 2.34977 12.9315 2 12.5 2C12.0685 2 11.7188 2.34977 11.7188 2.78125V5.75C11.7188 6.18148 12.0685 6.53125 12.5 6.53125ZM18.3751 7.60836L20.4743 5.50914C20.7794 5.20406 20.7794 4.70941 20.4743 4.4043C20.1692 4.09918 19.6746 4.09918 19.3695 4.4043L17.2702 6.50352C16.9651 6.80859 16.9651 7.30324 17.2702 7.60836C17.5753 7.91348 18.07 7.91344 18.3751 7.60836ZM6.62493 7.60832C6.93005 7.91344 7.4247 7.9134 7.72978 7.60832C8.03489 7.30324 8.03489 6.80859 7.72978 6.50348L5.63056 4.40426C5.32548 4.09914 4.83083 4.09918 4.52571 4.40426C4.2206 4.70934 4.2206 5.20398 4.52571 5.5091L6.62493 7.60832Z" fill="#D57300"/>
</svg>
