<svg width="36" height="36" viewBox="0 0 36 36" fill="none" xmlns="http://www.w3.org/2000/svg">
<path d="M9.68093 7.94589C11.8873 5.73952 14.8798 4.5 18 4.5C21.1203 4.5 24.1128 5.73952 26.3191 7.94589C28.5255 10.1523 29.765 13.1447 29.765 16.265C29.765 19.3853 28.5255 22.3777 26.3191 24.5841L24.7153 26.1704C23.5331 27.3297 21.9995 28.8214 20.1133 30.6454C19.5463 31.1936 18.7886 31.5 18 31.5C17.2115 31.5 16.4537 31.1936 15.8868 30.6454L11.1699 26.0569C10.5754 25.4745 10.0809 24.9841 9.68093 24.5841C8.5884 23.4917 7.72175 22.1947 7.13047 20.7673C6.53919 19.3399 6.23486 17.81 6.23486 16.265C6.23486 14.72 6.53919 13.1901 7.13047 11.7627C7.72175 10.3353 8.5884 9.03834 9.68093 7.94589ZM24.8856 9.37812C23.9812 8.47381 22.9075 7.75649 21.7259 7.26712C20.5443 6.77774 19.2778 6.5259 17.9989 6.52596C16.7199 6.52602 15.4535 6.77799 14.272 7.26748C13.0904 7.75697 12.0168 8.4744 11.1125 9.3788C10.2082 10.2832 9.49086 11.3569 9.00148 12.5385C8.51211 13.7201 8.26026 14.9865 8.26032 16.2655C8.26039 17.5444 8.51236 18.8108 9.00185 19.9924C9.49134 21.174 10.2088 22.2476 11.1132 23.1519L13.1237 25.1354C14.2289 26.2177 15.6206 27.5688 17.2961 29.1889C17.485 29.3713 17.7374 29.4733 18 29.4733C18.2627 29.4733 18.5151 29.3713 18.704 29.1889L23.2912 24.73C23.9262 24.1072 24.4572 23.5815 24.8856 23.1519C26.7117 21.3257 27.7376 18.8489 27.7376 16.2664C27.7376 13.6838 26.7117 11.207 24.8856 9.38082V9.37812ZM18 12.5817C18.5327 12.5817 19.0602 12.6866 19.5523 12.8905C20.0444 13.0943 20.4915 13.3931 20.8682 13.7698C21.2449 14.1464 21.5436 14.5936 21.7475 15.0857C21.9513 15.5778 22.0562 16.1053 22.0562 16.6379C22.0562 17.1706 21.9513 17.698 21.7475 18.1902C21.5436 18.6823 21.2449 19.1294 20.8682 19.5061C20.4915 19.8827 20.0444 20.1815 19.5523 20.3854C19.0602 20.5892 18.5327 20.6941 18 20.6941C16.9373 20.6747 15.9246 20.2389 15.1799 19.4805C14.4351 18.722 14.0179 17.7015 14.0179 16.6386C14.0179 15.5756 14.4351 14.5552 15.1799 13.7967C15.9246 13.0383 16.9373 12.6025 18 12.5831V12.5817ZM18 14.6085C17.4618 14.6085 16.9456 14.8223 16.565 15.2029C16.1844 15.5835 15.9706 16.0997 15.9706 16.6379C15.9706 17.1762 16.1844 17.6924 16.565 18.073C16.9456 18.4536 17.4618 18.6674 18 18.6674C18.529 18.6537 19.0318 18.434 19.4011 18.055C19.7704 17.676 19.9771 17.1678 19.9771 16.6386C19.9771 16.1094 19.7704 15.6012 19.4011 15.2222C19.0318 14.8432 18.529 14.6235 18 14.6098V14.6085Z" fill="#1F2229"/>
</svg>
