<svg width="24" height="24" viewBox="0 0 24 24" fill="none" xmlns="http://www.w3.org/2000/svg">
<path d="M15.1756 17.6491C17.2462 17.404 19.2806 16.9153 21.2366 16.1933C19.5801 14.3584 18.6647 11.9732 18.6684 9.50118V8.66771C18.6684 6.89932 17.9659 5.20337 16.7155 3.95293C15.465 2.70249 13.7691 2 12.0007 2C10.2323 2 8.53633 2.70249 7.28589 3.95293C6.03545 5.20337 5.33296 6.89932 5.33296 8.66771V9.50118C5.33632 11.9734 4.42058 14.3586 2.76367 16.1933C4.68953 16.9046 6.71985 17.3991 8.82573 17.6491M15.1756 17.6491C13.0664 17.8993 10.935 17.8993 8.82573 17.6491M15.1756 17.6491C15.3358 18.149 15.3756 18.6797 15.2918 19.1979C15.2081 19.7162 15.0032 20.2073 14.6937 20.6313C14.3843 21.0554 13.9791 21.4004 13.5111 21.6382C13.0431 21.876 12.5256 22 12.0007 22C11.4757 22 10.9582 21.876 10.4902 21.6382C10.0222 21.4004 9.61705 21.0554 9.30761 20.6313C8.99817 20.2073 8.79324 19.7162 8.70951 19.1979C8.62577 18.6797 8.66559 18.149 8.82573 17.6491" stroke="white" stroke-width="1.5" stroke-linecap="round" stroke-linejoin="round"/>
<circle cx="19" cy="5" r="4" fill="#F6C517" stroke="#1F2229" stroke-width="2"/>
</svg>
