<svg width="36" height="36" viewBox="0 0 36 36" fill="none" xmlns="http://www.w3.org/2000/svg">
<path d="M29.2118 18.4672V15.7693C29.2118 15.1375 28.6996 14.6252 28.0677 14.6252H25.7795C25.1476 14.6252 24.6354 15.1375 24.6354 15.7693V18.4672M11.6499 14.6314H5.92947M26.9236 10.2205V9.07638C26.9236 6.5489 24.8747 4.5 22.3472 4.5C19.8198 4.5 17.7709 6.5489 17.7709 9.07638V15.7693C17.7709 18.2968 15.722 21.0376 13.1945 21.0376H5.92947M31.5 21.0376V27.0054C31.5 27.4204 31.4097 27.8303 31.2354 28.2069C31.0611 28.5834 30.807 28.9175 30.4907 29.186L28.4044 30.9569C27.5503 31.6819 26.2969 31.6819 25.4429 30.9569L23.3566 29.186C23.0402 28.9175 22.7861 28.5834 22.6118 28.2069C22.4375 27.8303 22.3472 27.4204 22.3472 27.0054V21.0376C22.3472 20.0898 23.1156 19.3215 24.0634 19.3215H29.7839C30.7317 19.3215 31.5 20.0898 31.5 21.0376ZM12.8661 6.82383C13.4679 5.7942 12.7252 4.5 11.5326 4.5H6.04685C4.85425 4.5 4.11161 5.7942 4.71335 6.82383L5.92947 8.90477H11.6499L12.8661 6.82383ZM11.6499 27.0959H5.92947L4.71335 29.1768C4.11161 30.2065 4.85425 31.5007 6.04685 31.5007H11.5326C12.7252 31.5007 13.4678 30.2065 12.8661 29.1768L11.6499 27.0959Z" stroke="#1F2229" stroke-width="2" stroke-miterlimit="10" stroke-linecap="round" stroke-linejoin="round"/>
</svg>
