<svg width="24" height="24" viewBox="0 0 24 24" fill="none" xmlns="http://www.w3.org/2000/svg">
<path d="M8.17846 15.8821L8.82884 15.2318C8.89086 15.1652 8.96565 15.1118 9.04876 15.0748C9.13186 15.0377 9.22157 15.0178 9.31253 15.0162C9.4035 15.0146 9.49386 15.0314 9.57821 15.0654C9.66257 15.0995 9.7392 15.1502 9.80353 15.2146C9.86787 15.2789 9.91858 15.3555 9.95266 15.4399C9.98673 15.5242 10.0035 15.6146 10.0019 15.7056C10.0003 15.7965 9.98034 15.8862 9.94331 15.9693C9.90629 16.0524 9.8529 16.1272 9.78634 16.1893L7.97973 17.9959C7.8527 18.1227 7.68051 18.194 7.50098 18.194C7.32145 18.194 7.14926 18.1227 7.02223 17.9959L5.21563 16.1893C5.14906 16.1272 5.09568 16.0524 5.05865 15.9693C5.02162 15.8862 5.00171 15.7965 5.00011 15.7056C4.9985 15.6146 5.01523 15.5242 5.04931 15.4399C5.08338 15.3555 5.1341 15.2789 5.19843 15.2146C5.26276 15.1502 5.33939 15.0995 5.42375 15.0654C5.50811 15.0314 5.59846 15.0146 5.68943 15.0162C5.78039 15.0178 5.8701 15.0377 5.95321 15.0748C6.03631 15.1118 6.1111 15.1652 6.17313 15.2318L6.8235 15.8821V6.67748C6.8235 6.4978 6.89488 6.32548 7.02193 6.19843C7.14898 6.07138 7.3213 6 7.50098 6C7.68066 6 7.85298 6.07138 7.98003 6.19843C8.10708 6.32548 8.17846 6.4978 8.17846 6.67748V15.8821Z" fill="#8E8E93"/>
<path d="M14.8235 8.50654L14.1731 9.15692C14.1111 9.22348 14.0363 9.27687 13.9532 9.3139C13.8701 9.35092 13.7804 9.37083 13.6894 9.37244C13.5985 9.37404 13.5081 9.35731 13.4237 9.32324C13.3394 9.28916 13.2628 9.23845 13.1984 9.17412C13.1341 9.10978 13.0834 9.03315 13.0493 8.94879C13.0152 8.86444 12.9985 8.77408 13.0001 8.68312C13.0017 8.59215 13.0216 8.50244 13.0586 8.41934C13.0957 8.33623 13.1491 8.26144 13.2156 8.19942L15.0222 6.39281C15.1492 6.26594 15.3214 6.19468 15.501 6.19468C15.6805 6.19468 15.8527 6.26594 15.9797 6.39281L17.7863 8.19942C17.8529 8.26144 17.9063 8.33623 17.9433 8.41934C17.9803 8.50244 18.0002 8.59215 18.0018 8.68312C18.0035 8.77408 17.9867 8.86444 17.9526 8.94879C17.9186 9.03315 17.8679 9.10978 17.8035 9.17412C17.7392 9.23845 17.6626 9.28916 17.5782 9.32324C17.4938 9.35731 17.4035 9.37404 17.3125 9.37244C17.2216 9.37083 17.1318 9.35092 17.0487 9.3139C16.9656 9.27687 16.8908 9.22348 16.8288 9.15692L16.1784 8.50654V17.7112C16.1784 17.8909 16.1071 18.0632 15.98 18.1902C15.853 18.3173 15.6806 18.3887 15.501 18.3887C15.3213 18.3887 15.149 18.3173 15.0219 18.1902C14.8949 18.0632 14.8235 17.8909 14.8235 17.7112L14.8235 8.50654Z" fill="#8E8E93"/>
</svg>
